<?xml version="1.0" standalone="no"?>
<!DOCTYPE svg PUBLIC "-//W3C//DTD SVG 20010904//EN"
 "http://www.w3.org/TR/2001/REC-SVG-20010904/DTD/svg10.dtd">
<svg version="1.0" xmlns="http://www.w3.org/2000/svg"
 width="600.000000pt" height="750.000000pt" viewBox="0 0 600.000000 750.000000"
 preserveAspectRatio="xMidYMid meet">

<g transform="translate(0.000000,750.000000) scale(0.100000,-0.100000)"
fill="#000000" stroke="none">
<path d="M2 3748 l3 -3753 2 3747 3 3748 2998 3 2997 2 -3002 3 -3003 2 2
-3752z"/>
<path d="M2188 7113 c-203 -3 -233 -6 -227 -25 0 -2 -4 -15 -10 -30 -6 -17 -7
-28 -1 -28 6 0 6 -9 0 -25 -7 -18 -6 -25 3 -27 32 -4 -184 -16 -305 -17 l-138
-1 0 -69 0 -69 -300 -7 -299 -7 -3 -72 -3 -71 -67 -1 c-38 0 -70 -3 -73 -5 -2
-3 -6 -68 -9 -145 l-4 -139 -71 -3 -71 -3 0 -73 0 -74 -150 -7 -150 -7 -2
-217 c-2 -164 -6 -216 -15 -217 -7 -1 -40 -2 -73 -3 l-61 -1 2 -669 c0 -367 4
-673 8 -679 3 -6 36 -12 71 -14 l65 -3 7 -85 c3 -47 4 -147 1 -222 l-6 -138
-56 -1 c-31 -1 -62 -1 -68 0 -9 1 -13 -18 -13 -69 l0 -70 39 0 c21 0 52 -3 69
-6 l31 -6 3 -147 3 -146 73 -3 72 -3 0 -74 0 -75 75 0 75 0 0 -219 c0 -167 3
-220 13 -222 22 -7 172 6 156 13 -13 5 -17 19 -15 55 l1 48 65 -2 65 -1 -67
11 -68 10 -1 96 c-1 53 0 122 1 154 l2 57 -76 0 -76 0 0 150 0 150 75 0 75 0
1 158 c0 86 0 187 -1 225 l-1 67 75 0 76 0 0 79 c0 90 1 91 86 91 45 0 54 3
54 18 0 9 3 46 6 82 3 36 7 90 8 120 3 37 8 55 17 56 8 1 40 2 72 3 43 1 57 5
57 16 0 12 14 15 65 14 36 -1 62 -5 59 -10 -3 -5 1 -6 9 -3 8 3 19 -2 26 -10
9 -10 19 -13 30 -7 36 18 164 -8 134 -28 -6 -3 -9 -26 -8 -51 1 -25 -2 -50 -6
-55 -4 -6 -9 -40 -11 -75 l-4 -65 -64 -3 c-36 -2 -69 -7 -73 -11 -4 -4 -6
-180 -5 -392 3 -463 2 -645 -6 -664 -4 -11 -23 -15 -76 -15 l-70 0 0 -65 0
-65 50 0 c48 0 50 1 50 28 0 25 3 23 23 -18 22 -43 23 -56 26 -327 3 -291 -1
-326 -37 -322 -9 1 -37 0 -62 0 -41 -2 -43 -3 -20 -12 14 -6 32 -8 42 -6 9 3
19 0 22 -7 3 -7 8 -6 15 4 17 24 34 -2 26 -39 -7 -32 -20 -41 -28 -18 -3 9 -7
9 -18 0 -8 -6 -30 -13 -49 -15 l-35 -3 -2 -308 -2 -308 56 4 c94 7 93 8 93
-93 0 -61 -4 -91 -13 -99 -8 -6 -16 -9 -18 -7 -2 2 -13 -5 -23 -15 -19 -19
-19 -19 7 -19 21 0 27 -5 27 -22 0 -13 -5 -30 -10 -38 -8 -12 -13 -13 -30 -2
-24 15 -33 16 -25 2 3 -5 0 -10 -8 -10 -7 0 -18 17 -24 38 l-10 37 -2 -37 c0
-21 -5 -38 -11 -38 -7 0 -10 -158 -10 -455 l0 -455 75 0 75 0 0 -75 0 -75 75
0 75 0 0 -75 0 -75 375 0 375 0 0 75 0 75 150 0 150 0 0 75 0 75 75 0 74 0 3
73 3 72 75 5 75 5 6 70 5 70 2 -67 2 -68 59 0 59 0 7 70 7 70 73 0 c78 0 83 4
81 53 -1 15 2 27 7 27 5 0 7 6 4 14 -3 8 -1 17 6 20 9 3 8 8 -3 15 -11 8 5 11
65 13 44 1 89 2 100 3 11 1 41 3 68 4 l47 1 0 75 0 75 75 0 75 0 0 80 0 79 75
-2 75 -2 0 148 0 147 59 0 c98 0 91 -18 91 231 l0 219 59 0 c96 0 91 -8 91
156 l0 144 59 0 c96 0 91 -9 91 161 0 82 4 149 9 149 5 0 7 31 5 69 l-3 70 39
-1 c22 0 43 -4 45 -9 11 -16 55 14 55 37 0 13 5 26 10 29 6 4 7 12 3 18 -4 6
-8 22 -9 35 -2 13 -5 26 -7 28 -2 3 -69 8 -148 12 l-144 7 -3 290 c-3 304 7
658 18 615 4 -17 8 -21 14 -12 4 6 25 12 46 12 56 0 75 30 66 108 -13 122 -14
172 -5 172 7 0 9 141 8 381 l-2 380 -51 -3 -51 -3 -6 45 c-6 43 -6 43 -8 10
-7 -90 -19 -79 -20 18 -1 93 1 103 17 100 13 -2 18 5 20 30 2 17 8 32 13 32 6
0 7 -5 4 -10 -8 -13 4 -50 16 -50 6 0 8 4 5 9 -3 5 1 14 9 21 12 10 15 9 15
-4 0 -9 4 -16 9 -16 12 0 20 36 15 73 -2 17 0 34 5 37 5 3 11 73 13 155 l3
150 73 3 72 3 0 374 0 375 -22 1 c-13 0 -45 1 -73 2 l-50 2 -3 73 -3 72 -52 2
c-29 0 -60 0 -70 0 -24 -2 -26 5 -29 158 l-3 135 -72 3 -73 3 0 74 0 75 -112
0 c-62 0 -163 3 -225 7 l-112 6 -3 66 c-3 63 -4 66 -28 67 -14 1 -80 5 -147 9
l-123 8 0 67 0 67 -112 6 c-106 7 -326 6 -860 0z m1979 -1999 c-3 -3 -12 -4
-19 -1 -8 3 -5 6 6 6 11 1 17 -2 13 -5z m-3 -369 c3 -8 1 -15 -4 -15 -6 0 -10
7 -10 15 0 8 2 15 4 15 2 0 6 -7 10 -15z m-2866 -52 c-15 -2 -42 -2 -60 0 -18
2 -6 4 27 4 33 0 48 -2 33 -4z m27 -23 c14 -6 -1 -9 -48 -9 -43 -1 -66 3 -62
9 7 12 82 12 110 0z m-10 -30 c14 -6 1 -9 -43 -9 -40 -1 -61 3 -57 9 7 12 72
12 100 0z m3 -27 c-10 -2 -28 -2 -40 0 -13 2 -5 4 17 4 22 1 32 -1 23 -4z
m-292 -269 c-3 -8 -16 -13 -28 -13 l-23 2 23 4 c17 3 22 12 23 36 1 25 3 27 6
9 3 -13 2 -30 -1 -38z m-51 -27 c21 -3 16 -4 -18 -6 -40 -1 -46 1 -35 13 7 8
15 10 18 6 3 -5 19 -10 35 -13z m3125 -227 c0 -5 8 -10 18 -11 10 0 12 -3 5
-6 -7 -2 -23 3 -35 11 -18 13 -19 16 -5 16 9 0 17 -4 17 -10z m80 -6 c0 -2 -7
-4 -15 -4 -8 0 -15 4 -15 10 0 5 7 7 15 4 8 -4 15 -8 15 -10z m-113 -46 c-3
-7 -5 -2 -5 12 0 14 2 19 5 13 2 -7 2 -19 0 -25z m47 -2 c-21 -15 -30 -14 -19
3 3 6 14 11 23 11 13 0 13 -2 -4 -14z m11 -55 c3 -5 1 -12 -5 -16 -5 -3 -10 1
-10 9 0 18 6 21 15 7z m15 -107 c0 -8 -5 -12 -10 -9 -6 3 -14 -4 -19 -17 -8
-18 -10 -19 -10 -5 -1 18 18 46 32 47 4 0 7 -7 7 -16z m-1880 -835 c8 -14 8
-24 1 -32 -5 -7 -7 -32 -4 -55 l6 -42 73 0 74 0 -4 -42 c-3 -41 -5 -43 -42
-49 l-39 -6 43 -2 c28 -1 41 -5 36 -12 -3 -6 -27 -9 -54 -7 -30 2 -53 -2 -64
-11 -11 -10 -37 -14 -74 -12 -79 3 -93 21 -97 135 -2 49 0 86 5 86 6 0 6 10 0
25 -12 31 -2 37 50 34 21 -2 42 0 46 4 13 13 33 7 44 -14z"/>
<path d="M733 6475 c0 -22 2 -30 4 -17 2 12 2 30 0 40 -3 9 -5 -1 -4 -23z"/>
<path d="M1373 4375 c0 -22 2 -30 4 -17 2 12 2 30 0 40 -3 9 -5 -1 -4 -23z"/>
<path d="M1238 4093 c7 -3 16 -2 19 1 4 3 -2 6 -13 5 -11 0 -14 -3 -6 -6z"/>
<path d="M890 2999 c-13 -24 -4 -41 10 -19 10 16 13 40 5 40 -2 0 -9 -9 -15
-21z"/>
<path d="M4320 2715 c-8 -9 -8 -15 -2 -15 12 0 26 19 19 26 -2 2 -10 -2 -17
-11z"/>
<path d="M4250 2640 c0 -11 7 -20 15 -20 17 0 18 2 9 24 -9 23 -24 20 -24 -4z"/>
<path d="M4814 2460 c-5 -5 -26 -11 -46 -12 -33 -3 -36 -5 -33 -30 2 -19 -1
-28 -11 -28 -8 0 -14 5 -14 10 0 6 -11 10 -25 10 -14 0 -25 -4 -25 -10 0 -5
11 -10 25 -10 31 0 31 -11 1 -47 -20 -24 -24 -44 -31 -148 -5 -66 -8 -134 -8
-151 -1 -30 -2 -31 -31 -23 -42 12 -43 12 -42 -13 1 -13 -3 -23 -9 -23 -5 0
-20 -7 -32 -15 -16 -12 -20 -22 -16 -43 3 -15 9 -24 14 -21 5 3 9 -2 9 -10 0
-26 -2 -31 -10 -29 -6 2 -2 -136 4 -144 1 -1 17 -4 36 -5 l35 -3 7 64 c7 64
22 101 18 46 -4 -58 0 -118 8 -111 4 4 12 69 17 144 l10 137 62 0 c34 0 67 5
73 11 7 7 11 66 12 161 l1 151 61 -4 c86 -4 89 -1 80 85 l-7 71 -61 0 c-34 0
-66 -4 -72 -10z m-9 -40 c-3 -5 -12 -7 -20 -3 -21 7 -19 13 6 13 11 0 18 -4
14 -10z"/>
<path d="M4870 2191 c0 -6 4 -13 10 -16 6 -3 7 1 4 9 -7 18 -14 21 -14 7z"/>
<path d="M4510 2061 c0 -6 5 -13 10 -16 6 -3 10 1 10 9 0 9 -4 16 -10 16 -5 0
-10 -4 -10 -9z"/>
<path d="M4760 1900 c-12 -8 -10 -10 8 -10 13 0 20 4 17 10 -7 12 -6 12 -25 0z"/>
<path d="M4585 1630 c3 -5 10 -10 16 -10 5 0 9 5 9 10 0 6 -7 10 -16 10 -8 0
-12 -4 -9 -10z"/>
<path d="M3248 933 c12 -2 30 -2 40 0 9 3 -1 5 -23 4 -22 0 -30 -2 -17 -4z"/>
</g>
</svg>
